<?xml version="1.0" standalone="no"?>
<!DOCTYPE svg PUBLIC "-//W3C//DTD SVG 20010904//EN"
 "http://www.w3.org/TR/2001/REC-SVG-20010904/DTD/svg10.dtd">
<svg version="1.0" xmlns="http://www.w3.org/2000/svg"
 width="512.000000pt" height="512.000000pt" viewBox="0 0 512.000000 512.000000"
 preserveAspectRatio="xMidYMid meet">
<metadata>
Created by potrace 1.14, written by Peter Selinger 2001-2017
</metadata>
<g transform="translate(0.000000,512.000000) scale(0.100000,-0.100000)"
fill="#000000" stroke="none">
<path d="M1410 5104 c-36 -7 -71 -16 -78 -19 -7 -2 -15 -4 -18 -4 -4 0 -10 -3
-13 -8 -3 -5 -17 -14 -31 -21 -76 -37 -154 -113 -186 -180 -20 -42 -26 -73
-28 -134 -2 -56 -7 -83 -17 -89 -8 -5 -30 -19 -49 -31 -19 -12 -39 -26 -45
-30 -106 -83 -186 -148 -211 -173 -38 -39 -76 -100 -67 -108 3 -4 2 -7 -3 -7
-16 0 -16 -127 0 -183 9 -30 31 -69 52 -92 41 -46 59 -75 46 -75 -5 0 -7 -10
-5 -22 3 -17 -7 -34 -41 -65 -25 -23 -46 -47 -46 -53 0 -5 -5 -10 -11 -10 -5
0 -7 -4 -4 -10 3 -5 2 -10 -3 -10 -9 0 -52 -93 -52 -112 0 -5 -10 -19 -22 -32
-43 -43 -73 -81 -95 -116 -40 -66 -63 -110 -57 -110 4 0 2 -6 -3 -12 -6 -7
-19 -47 -29 -88 -15 -60 -19 -112 -19 -260 0 -102 4 -219 9 -260 5 -41 10 -86
12 -100 1 -14 3 -25 4 -25 3 0 9 -34 25 -150 4 -22 9 -47 12 -55 6 -17 10 -42
21 -147 7 -59 -3 -163 -18 -193 -7 -13 -20 -52 -20 -58 0 -6 -61 -169 -81
-217 -35 -84 -48 -279 -27 -410 6 -38 12 -81 13 -95 2 -14 4 -25 5 -25 2 0 4
-9 6 -20 4 -27 8 -44 39 -160 15 -55 29 -115 32 -132 3 -18 10 -33 16 -33 6 0
8 -3 5 -6 -4 -3 -2 -20 4 -37 35 -117 39 -150 43 -337 3 -186 9 -267 21 -300
3 -8 8 -26 10 -38 21 -111 192 -171 454 -158 265 12 390 68 396 177 1 23 -4
43 -12 50 -8 6 -14 17 -14 23 0 9 -86 56 -103 56 -3 0 -16 4 -29 9 -13 5 -27
9 -33 10 -5 1 -20 11 -32 22 -23 22 -23 20 16 129 13 35 18 71 16 101 -4 43 1
53 61 145 36 55 84 133 106 174 23 41 44 77 47 80 19 16 148 320 136 320 -2 0
0 12 6 28 23 58 25 226 5 321 -12 54 -40 142 -78 246 -36 101 -39 116 -34 180
3 39 7 79 10 90 2 11 5 26 5 33 1 7 22 -17 47 -55 108 -157 191 -251 272 -306
31 -21 32 -24 27 -72 -4 -27 -8 -75 -9 -106 -2 -31 -6 -61 -10 -67 -3 -6 -2
-13 2 -16 10 -6 8 -48 -3 -65 -3 -6 -3 -11 2 -11 4 0 9 -28 9 -63 4 -166 28
-285 116 -557 16 -52 32 -102 35 -110 2 -8 3 -15 1 -16 -2 0 3 -8 11 -17 7
-10 11 -17 8 -17 -3 0 1 -24 10 -53 17 -54 24 -248 11 -299 -3 -14 -21 -57
-38 -95 -57 -121 -62 -136 -65 -204 -2 -62 0 -70 24 -92 34 -31 71 -44 156
-55 75 -10 460 -8 510 2 86 18 158 58 170 95 4 14 24 16 137 15 73 0 137 2
142 4 5 3 25 6 45 8 83 5 165 31 222 69 89 59 106 200 47 410 -6 22 -12 50
-13 62 -2 12 -6 27 -10 32 -3 6 -9 39 -12 74 -5 58 -2 69 36 151 23 48 41 93
41 100 0 7 5 17 12 24 7 7 9 12 5 12 -4 0 -3 9 3 20 16 31 23 94 24 225 1 118
1 120 25 127 29 8 30 7 35 -18 24 -119 83 -274 125 -326 8 -10 10 -18 6 -18
-4 0 2 -8 13 -19 12 -10 20 -20 17 -23 -7 -7 127 -142 175 -175 50 -34 170
-96 170 -88 0 3 9 -3 21 -13 48 -39 70 -159 60 -322 -1 -16 -26 -51 -71 -98
-39 -39 -70 -76 -70 -81 0 -5 -4 -11 -8 -13 -21 -8 -64 -81 -68 -114 -5 -43 7
-61 56 -83 39 -17 42 -18 125 -27 165 -18 461 5 481 37 3 5 9 7 13 4 10 -6
108 28 124 44 6 6 16 11 21 11 28 0 119 68 137 101 18 36 22 50 34 139 12 83
5 337 -11 415 -3 11 -7 38 -10 60 -3 22 -8 47 -11 55 -2 8 -11 40 -19 69 -8
30 -31 89 -50 130 -39 84 -141 241 -156 241 -9 0 -7 52 6 175 38 350 19 683
-50 860 -9 22 -16 41 -15 42 3 17 -106 246 -121 251 -4 2 -8 10 -8 18 0 8 -4
14 -10 14 -5 0 -10 6 -10 14 0 23 -131 152 -180 176 -48 25 -98 40 -142 44
-15 1 -31 5 -34 9 -4 4 -16 7 -26 7 -48 0 -367 137 -376 161 -2 5 -8 9 -13 9
-24 0 -326 222 -339 250 -4 8 -15 44 -24 80 -23 90 -22 87 -59 170 -22 50 -92
162 -129 206 -132 159 -236 245 -363 304 -105 48 -162 61 -272 63 l-61 2 16
30 c18 33 24 195 8 230 -5 11 -10 27 -12 36 -2 9 -9 29 -15 45 -7 16 -13 31
-14 34 -38 111 -217 315 -363 413 -97 65 -229 124 -297 133 -83 11 -189 10
-245 -2z m1227 -4248 c-3 -8 -3 -17 1 -21 4 -4 7 -10 8 -13 1 -19 17 -129 20
-147 3 -11 5 -57 6 -102 1 -89 -2 -97 -66 -168 l-37 -40 -30 35 c-30 35 -49
88 -45 125 3 27 24 91 47 142 23 51 42 96 43 103 3 12 50 100 54 100 2 0 2 -6
-1 -14z"/>
</g>
</svg>
